<!DOCTYPE svg PUBLIC "-//W3C//DTD SVG 1.1//EN" "http://www.w3.org/Graphics/SVG/1.1/DTD/svg11.dtd">
<!-- Uploaded to: SVG Find, www.svgrepo.com, Transformed by: SVG Find Mixer Tools -->
<svg fill="#334080" width="800px" height="800px" version="1.1" viewBox="144 144 512 512" xmlns="http://www.w3.org/2000/svg" stroke="#334080">
<g id="SVGRepo_bgCarrier" stroke-width="0"/>
<g id="SVGRepo_tracerCarrier" stroke-linecap="round" stroke-linejoin="round"/>
<g id="SVGRepo_iconCarrier"> <g> <path d="m405.45 282.8v4.3711c0 0.66797-0.074218 1.332-0.44531 1.9258 0 0.22266 0 0.29688-0.074219 0.44531-0.22266 0.59375-0.59375 1.0391-1.0391 1.4805-0.44531 0.44531-1.0391 0.89062-1.7031 1.1133-0.66797 0.37109-1.4062 0.44531-2.1484 0.44531-1.4062 0-2.668-0.44531-3.5547-1.332-0.37109-0.22266-0.59375-0.59375-0.81641-0.89062-0.37109-0.37109-0.59375-0.81641-0.66797-1.2578-0.14844-0.14844-0.22266-0.22266-0.14844-0.37109-0.22266-0.44531-0.29688-1.0391-0.29688-1.5547v-4.3711h0.51953c1.4805-0.074219 2.9648-0.074219 4.4453-0.074219h2.2969l3.3359 0.074219z"/> <path d="m405.45 512.85v4.3711c-0.74219 0-3.8516 0.074219-3.8516 0.074219h-2c-1.4062 0-3.0391 0-4.7422-0.074219h-0.29687v-4.3711c0-3.0391 2.3711-5.4102 5.4844-5.4102 0.51953 0 1.1133 0.074219 1.5547 0.29688 0.14844-0.074219 0.22266 0 0.37109 0.14844 0.22266 0 0.44531 0 0.51953 0.22266 0.51953 0.074219 0.81641 0.29688 1.1836 0.81641 0.074219 0 0.22266 0.074219 0.29688 0.22266 0.37109 0.29688 0.74219 0.74219 0.81641 1.2578 0.22266 0.22266 0.22266 0.44531 0.37109 0.66797 0.21875 0.58984 0.29297 1.1094 0.29297 1.7773"/> <path d="m292.53 402.09c0 1.332-0.44531 2.5938-1.3359 3.4805-0.22266 0.37109-0.59375 0.59375-0.96484 0.81641-0.29688 0.37109-0.74219 0.59375-1.1836 0.66797-0.14844 0.14062-0.29688 0.29688-0.37109 0.14062-0.44531 0.23047-1.0391 0.37891-1.6289 0.37891h-4.1484c-0.22266-2.5195-0.29688-5.0391-0.29688-7.6328 0-1.1094 0-2.2227 0.074219-3.3359h4.3711c0.74219 0 1.4062 0.074219 2 0.44531 0.22266 0 0.29688 0 0.44531 0.14844 0.51953 0.22266 1.0391 0.51953 1.4805 0.96484 0.44531 0.51953 0.89062 1.0391 1.1094 1.7031 0.375 0.73828 0.44922 1.4062 0.44922 2.2227"/> <path d="m517.25 399.94c0 2.5938-0.074219 5.1133-0.29688 7.6328h-4.1484c-3.0391 0-5.4844-2.4453-5.4844-5.4844 0-0.59375 0.14844-1.1836 0.37109-1.6289-0.14844-0.074219 0-0.22266 0.14844-0.29688 0-0.29688 0-0.51953 0.22266-0.59375 0.074218-0.44531 0.29688-0.81641 0.74219-1.1836 0-0.074218 0.14844-0.22266 0.22266-0.29687 0.37109-0.37109 0.81641-0.66797 1.2617-0.81641 0.22266-0.22266 0.51953-0.22266 0.74219-0.37109 0.51953-0.22266 1.1133-0.29688 1.7773-0.29688h4.3711c0.070313 1.1133 0.070313 2.2227 0.070313 3.3359"/> <path d="m486.65 479.21c-2.4453 2.7422-5.0391 5.3359-7.707 7.707l-3.2617-3.2617c-0.51953-0.44531-0.89063-1.0391-1.0391-1.6289-0.22266-0.22266-0.29688-0.29688-0.29688-0.44531-0.22266-0.51953-0.29688-1.1094-0.29688-1.7773 0-0.59375 0.074219-1.332 0.37109-2 0.29688-0.74219 0.66797-1.2578 1.2578-1.8516 0.96484-0.96484 2.1484-1.5547 3.4844-1.5547 0.37109-0.074219 0.74219 0 1.1836 0.074218 0.44531 0 0.96484 0.22266 1.332 0.44531 0.22266 0 0.37109 0 0.37109 0.14844 0.44531 0.14844 0.96484 0.51953 1.3359 0.89062z"/> <path d="m323.8 324.07c-0.44531 0.37109-0.89062 0.74219-1.4062 0.89062 0 0.14844-0.14844 0.14844-0.29688 0.14844-0.14844 0.14844-0.29688 0.37109-0.59375 0.22266-0.37109 0.29688-0.81641 0.37109-1.332 0.29688-0.074219 0.074219-0.29688 0.074219-0.44531 0.074219-0.44531 0-1.0352-0.074219-1.4062-0.37109-0.37109 0-0.51953-0.14844-0.74219-0.22266-0.59375-0.22266-1.0391-0.51953-1.5547-1.0391l-3.0391-3.0391c2.5195-2.668 5.1133-5.2617 7.7812-7.707l3.0391 2.9648c2.1445 2.2266 2.1445 5.6328-0.003907 7.7812"/> <path d="m325.57 479.43c0.074219 0.37109 0 0.81641-0.14844 1.1836 0 0.51953-0.14844 0.96484-0.37109 1.4062 0 0.14844 0 0.29688-0.14844 0.29688-0.14844 0.51953-0.51953 0.96875-0.89062 1.332l-3.1133 3.1133c-2.7422-2.3711-5.3359-4.9648-7.7812-7.707l3.1133-3.1133c0.51953-0.51953 1.0352-0.89062 1.7031-1.0391 0.14844-0.14844 0.22266-0.22266 0.44531-0.22266 0.51953-0.29688 1.1133-0.36328 1.7773-0.36328 0.59375 0 1.332 0.066406 2 0.4375 0.74219 0.22266 1.2578 0.59375 1.8516 1.1836 0.96875 0.97266 1.5625 2.1602 1.5625 3.4922"/> <path d="m486.8 320.88-3.1875 3.1875c-2.1484 2.1484-5.5586 2.1484-7.707 0-0.44531-0.37109-0.74219-0.89062-0.89062-1.332-0.14844 0-0.14844-0.22266-0.14844-0.37109-0.22266-0.14844-0.37109-0.29688-0.29688-0.51953-0.22266-0.44531-0.29688-0.81641-0.22266-1.4062-0.074219-0.074219-0.074219-0.22266-0.074219-0.37109 0-0.51953 0.074219-1.1133 0.29688-1.4805 0-0.29688 0.22266-0.51953 0.29688-0.74219 0.22266-0.51953 0.51953-1.0391 1.0391-1.4805l3.1875-3.1875c2.668 2.4414 5.1875 5.0352 7.707 7.7031"/> <path d="m434.86 303.1c-2.4453 22.078-13.855 59.273-21.336 82.387-3.4102-3.3359-7.9258-5.2617-12.965-5.4102h-0.66797c7.3359-31.34 21.484-62.605 29.488-78.535 1.4062-2.9609 5.8516-1.625 5.4805 1.5586"/> <path d="m380.03 400.01c0 1.8516 0.22266 3.6289 0.74219 5.1875-24.969 4.1484-37.266 0.74219-54.605-0.37109-3.2617-0.22266-3.7031-4.8164-0.59375-5.7031 18.672-5.4102 41.27-8 57.125-9.1133-1.7031 2.9609-2.668 6.4453-2.668 10"/> <path d="m414.34 400.01c0 7.707-6.0742 14.078-13.781 14.375h-1.2578c-6.1484-0.22266-11.336-4.4453-13.039-10.148-0.44531-1.332-0.66797-2.7422-0.66797-4.2227 0-4.1484 1.7773-7.9258 4.5938-10.445 2.2227-2.2227 5.1875-3.6289 8.4453-3.8516 0.22266-0.074219 0.44531-0.074219 0.66797-0.074219h1.2578c4.5938 0.14844 8.5195 2.4453 10.965 5.9258 1.7773 2.3672 2.8164 5.332 2.8164 8.4414"/> <path d="m399.78 245.32c-85.328 0-154.75 69.371-154.75 154.63 0 85.328 69.422 154.76 154.75 154.76 85.27 0 154.63-69.43 154.63-154.76 0-85.266-69.363-154.63-154.63-154.63m6.1133 283.02c-0.66797 0-1.3359 0-1.9258 0.074219h-3.6289c-1.9258 0-3.7773 0-5.7031-0.074219-68.828-2.9648-122.84-59.348-122.84-128.4 0-68.977 54.012-125.29 122.91-128.25 1.8516-0.074219 3.7031-0.074219 5.6328-0.074219h3.7773c0.51953 0.074219 1.1133 0.074219 1.6289 0.074219 68.977 2.9648 122.91 59.273 122.91 128.25-0.003906 69.051-53.941 125.43-122.77 128.4"/> <path d="m476.2 316.36c-0.51953 0.44531-0.81641 0.96484-1.0391 1.4805-0.074218 0.22266-0.29688 0.44531-0.29688 0.74219-0.22266 0.37109-0.29688 0.96484-0.29688 1.4805 0 0.14844 0 0.29688 0.074219 0.37109-0.074219 0.59375 0 0.96484 0.22266 1.4062-0.074219 0.22266 0.074219 0.37109 0.29688 0.51953 0 0.14844 0 0.37109 0.14844 0.37109 0.14844 0.44531 0.44531 0.96484 0.89062 1.332 2.1484 2.1484 5.5586 2.1484 7.707 0l3.1875-3.1875c-2.5195-2.668-5.0391-5.2617-7.707-7.707z"/> <path d="m636.53 375.04c-1.0391-9.9961-8.5938-18.145-18.301-19.773l-17.855-3.1133c-6.1484-1.0391-11.113-5.6328-13.039-11.93-3.4805-11.492-8-22.672-13.484-33.266-3.0391-5.7031-2.7422-12.371 0.74219-17.336l9.8555-14.301c5.5586-8.0078 5.2617-18.746-0.74219-26.078-10.891-13.336-23.34-25.562-37.117-36.305-7.4102-5.7852-18.152-5.8516-26.078-0.14844l-11.93 8.668c-5.1133 3.6289-11.93 4-17.855 0.89062-10.156-5.4805-20.973-10-32.012-13.559-6.1484-2-10.594-6.9648-11.633-12.965l-2.3711-14.078c-1.7031-9.707-9.8555-17.195-19.855-18.227-16.004-1.7031-33.637-1.7031-49.715 0-9.9297 1.0312-18.078 8.5195-19.781 18.227l-2.4453 14.078c-1.0391 6-5.4844 10.965-11.633 12.965-11.039 3.5547-21.781 8.0742-32.008 13.559-5.8516 3.1133-12.668 2.7422-17.781-0.89062l-12.148-8.8164c-7.9258-5.7031-18.672-5.6328-26.078 0.14844-13.781 10.816-26.227 23.035-37.043 36.527-5.9258 7.2617-6.1484 17.93-0.66797 25.93l9.9297 14.441c3.4805 4.9727 3.7773 11.566 0.81641 17.27-5.5586 10.742-10.148 21.93-13.559 33.266-1.9258 6.2969-6.9648 10.891-13.039 11.93l-17.93 3.1133c-9.7109 1.6289-17.195 9.7812-18.23 19.773-0.89062 8.5273-1.4062 17.047-1.4062 25.273 0 8.4453 0.44531 16.816 1.2578 24.82 1.0391 10.004 8.5938 18.145 18.301 19.781l18.078 3.1133c6.0742 1.0391 11.039 5.6289 12.965 11.922 3.5547 11.492 8.0742 22.68 13.559 33.273 2.9648 5.7031 2.5938 12.371-0.81641 17.336l-9.9297 14.219c-5.6289 8.082-5.3359 18.898 0.66797 26.227 10.965 13.344 23.484 25.488 37.191 36.238 7.4844 5.7734 18.227 5.8516 26.152 0.14844l12.004-8.75c5.1133-3.7031 12.004-4 17.93-0.80859 9.9297 5.3281 20.598 9.8555 31.711 13.41 6.2227 2 10.668 6.9648 11.707 13.031l2.2969 13.938c1.6289 9.6992 9.7812 17.262 19.855 18.301 8 0.81641 16.301 1.2539 24.746 1.2539 8.2227 0 16.672-0.4375 25.191-1.3281 10-1.0391 18.152-8.5938 19.781-18.375l2.3711-13.789c1.0391-6.0664 5.4844-11.031 11.633-13.031 11.188-3.5547 21.855-8.082 31.711-13.41 6-3.1914 12.816-2.8984 17.93 0.80859l12.078 8.75c7.9258 5.7031 18.672 5.625 26.078-0.14844 13.559-10.668 26.078-22.82 37.117-36.238 6.0742-7.3281 6.3711-18.145 0.74219-26.227l-9.8555-14.219c-3.4102-4.9648-3.7773-11.633-0.74219-17.336 5.4102-10.445 9.9297-21.633 13.41-33.273 1.9258-6.2891 6.8906-10.883 13.039-11.922l18.004-3.1133c9.7812-1.6367 17.262-9.7812 18.301-19.781 0.81641-8 1.2578-16.375 1.2578-24.82 0.003906-8.2266-0.44141-16.746-1.3281-25.273m-236.75 185.23c-88.398 0-160.31-71.918-160.31-160.31 0-88.336 71.91-160.2 160.31-160.2 88.328 0 160.2 71.859 160.2 160.2 0 88.387-71.867 160.31-160.2 160.31"/> </g> </g>
</svg>